REM MD5 c0888df91c82f796d4de42fba948d501
FILE "Unsolved, The - Hyper Science Adventure (Japan) (Disc 2).bin" BINARY
  TRACK 01 MODE2/2352
    INDEX 01 00:00:00
  TRACK 02 AUDIO
    INDEX 00 48:56:71
    INDEX 01 48:58:71
  TRACK 03 AUDIO
    INDEX 00 52:58:58
    INDEX 01 53:00:58
REM LEADOUT 57:39:00
